<?xml version="1.0" standalone="no"?><!DOCTYPE svg PUBLIC "-//W3C//DTD SVG 1.1//EN" "http://www.w3.org/Graphics/SVG/1.1/DTD/svg11.dtd"><svg t="1545987142960" class="icon" style="" viewBox="0 0 1024 1024" version="1.1" xmlns="http://www.w3.org/2000/svg" p-id="6306" xmlns:xlink="http://www.w3.org/1999/xlink" width="200" height="200"><defs><style type="text/css"></style></defs><path d="M765.44 864c-30.293333 0-58.026667-12.373333-82.346667-36.693333-17.92-17.92-34.133333-42.666667-49.92-75.093334-25.173333-53.333333-45.653333-121.173333-71.68-210.773333-3.84-12.8-7.253333-25.173333-10.666666-37.546667-20.053333-70.826667-39.253333-137.386667-66.986667-184.32-26.453333-44.373333-55.893333-63.573333-98.133333-63.573333-37.12 0-69.12 15.786667-98.56 48.213333-28.16 31.146667-52.48 76.373333-72.533334 134.826667-37.546667 108.8-50.773333 236.8-50.773333 313.173333H68.266667c0-84.053333 14.506667-224.853333 55.893333-344.746666 70.4-204.8 180.906667-247.466667 261.12-247.466667 40.533333 0 76.8 10.666667 108.373333 31.573333 27.306667 18.346667 50.773333 43.946667 71.253334 78.506667 34.56 58.026667 55.04 130.56 77.226666 207.36 3.413333 12.373333 7.253333 24.746667 10.666667 37.12 20.053333 68.266667 42.24 145.493333 66.56 196.266667 17.066667 35.84 34.133333 57.173333 46.506667 57.173333 7.253333 0 31.146667-15.36 57.173333-62.72 24.746667-44.373333 37.973333-91.306667 37.973333-113.493333H955.733333c0 42.666667-19.626667 105.813333-49.92 160.426666-16.64 29.866667-34.986667 54.613333-54.613333 72.96-27.306667 25.6-55.893333 38.826667-85.76 38.826667z" fill="#b3b3b3" p-id="6307"></path></svg>