<?xml version="1.0" standalone="no"?><!DOCTYPE svg PUBLIC "-//W3C//DTD SVG 1.1//EN" "http://www.w3.org/Graphics/SVG/1.1/DTD/svg11.dtd"><svg t="1545989066344" class="icon" style="" viewBox="0 0 1024 1024" version="1.1" xmlns="http://www.w3.org/2000/svg" p-id="15420" xmlns:xlink="http://www.w3.org/1999/xlink" width="200" height="200"><defs><style type="text/css"></style></defs><path d="M517.12 240.64c-66.56 0-399.36-5.12-399.36-122.88S450.56 0 517.12 0s399.36 5.12 399.36 122.88-332.8 117.76-399.36 117.76z m-307.2-117.76c35.84 20.48 143.36 46.08 312.32 46.08s271.36-25.6 312.32-46.08c-35.84-20.48-143.36-46.08-312.32-46.08s-276.48 25.6-312.32 46.08zM517.12 1024c-66.56 0-399.36-5.12-399.36-122.88s332.8-122.88 399.36-122.88 399.36 5.12 399.36 122.88-332.8 122.88-399.36 122.88z m-307.2-122.88c35.84 20.48 143.36 46.08 312.32 46.08s271.36-25.6 312.32-46.08c-35.84-20.48-143.36-46.08-312.32-46.08-168.96 5.12-276.48 30.72-312.32 46.08z" p-id="15421" fill="#b3b3b3"></path><path d="M122.88 122.88h76.8v783.36H122.88zM839.68 122.88h76.8v783.36h-76.8z" p-id="15422" fill="#b3b3b3"></path></svg>