<?xml version="1.0" standalone="no"?><!DOCTYPE svg PUBLIC "-//W3C//DTD SVG 1.1//EN" "http://www.w3.org/Graphics/SVG/1.1/DTD/svg11.dtd"><svg t="1545988720056" class="icon" style="" viewBox="0 0 1275 1024" version="1.1" xmlns="http://www.w3.org/2000/svg" p-id="13802" xmlns:xlink="http://www.w3.org/1999/xlink" width="249.0234375" height="200"><defs><style type="text/css"></style></defs><path d="M427.106213 607.1448L119.261177 420.655858l312.689012-113.166875-166.6245-118.731238 322.857222-74.481309 469.807725 190.629093-630.884423 302.239271zM176.577422 426.336145l251.903321 152.605949 568.078339-272.140376-410.437966-166.549977-261.425668 60.305433L484.927555 314.734246 176.577422 426.336145z" fill="#b3b3b3" p-id="13803"></path><path d="M427.644432 914.02104L129.462508 728.782424l272.935286-136.898219-137.047264-85.146336 320.472495-126.108987 471.521748 160.215547-629.700341 373.176611zM180.262156 731.092628l247.688647 153.864555 570.28918-337.968771-411.787655-139.912248-265.971553 104.663007 132.708386 82.455238L180.262156 731.092628z" fill="#b3b3b3" p-id="13804"></path><path d="M1033.663111 304.963491l24.840904 0.149045-1.391091 235.938901-24.840903-0.149046zM413.360913 593.076569h24.840903v303.365392h-24.840903zM573.717224 131.358697h24.840904v262.493826h-24.840904zM459.730599 314.651443h24.840904v127.831289h-24.840904zM289.81054 189.055835l0.165606 184.178738-24.840904 0.016561L264.969636 189.072396zM144.408452 421.25204l9.331899 306.702354-24.832623 0.761787-9.323619-306.702354z" fill="#b3b3b3" p-id="13805"></path></svg>