<?xml version="1.0" standalone="no"?><!DOCTYPE svg PUBLIC "-//W3C//DTD SVG 1.1//EN" "http://www.w3.org/Graphics/SVG/1.1/DTD/svg11.dtd"><svg t="1545987701987" class="icon" style="" viewBox="0 0 1397 1024" version="1.1" xmlns="http://www.w3.org/2000/svg" p-id="9953" xmlns:xlink="http://www.w3.org/1999/xlink" width="272.8515625" height="200"><defs><style type="text/css"></style></defs><path d="M1280 1024 116.363636 1024C52.107636 1024 0 971.892364 0 907.636364L0 116.363636C0 52.107636 52.107636 0 116.363636 0L1280 0C1344.256 0 1396.363636 52.107636 1396.363636 116.363636L1396.363636 907.636364C1396.363636 971.892364 1344.256 1024 1280 1024ZM1256.727273 162.909091C1256.727273 145.431273 1248.907636 139.636364 1233.454545 139.636364L162.909091 139.636364C145.454545 139.636364 139.636364 145.431273 139.636364 162.909091L139.636364 861.090909C139.636364 880.570182 143.429818 884.363636 162.909091 884.363636L1233.454545 884.363636C1252.933818 884.363636 1256.727273 878.568727 1256.727273 861.090909L1256.727273 162.909091Z" p-id="9954" fill="#b3b3b3"></path></svg>