<?xml version="1.0" standalone="no"?><!DOCTYPE svg PUBLIC "-//W3C//DTD SVG 1.1//EN" "http://www.w3.org/Graphics/SVG/1.1/DTD/svg11.dtd"><svg t="1545989862059" class="icon" style="" viewBox="0 0 1024 1024" version="1.1" xmlns="http://www.w3.org/2000/svg" p-id="7978" xmlns:xlink="http://www.w3.org/1999/xlink" width="200" height="200"><defs><style type="text/css"></style></defs><path d="M725.333333 170.666667v170.666666h42.666667v85.333334h-15.36L896 981.333333h-88.32l-23.893333-92.586666L512 731.733333l-271.786667 157.013334L216.32 981.333333H128l143.36-554.666666H256V341.333333h42.666667V170.666667H256V128l256-85.333333 256 85.333333v42.666667h-42.666667M310.613333 615.68l-40.533333 157.44L426.666667 682.666667l-116.053334-66.986667M664.32 426.666667H359.68l-26.88 103.253333 179.2 103.68 179.2-103.68-26.88-103.253333m89.6 346.453333l-40.533333-157.44L597.333333 682.666667l156.586667 90.453333z" fill="#b3b3b3" p-id="7979"></path></svg>