<?xml version="1.0" standalone="no"?><!DOCTYPE svg PUBLIC "-//W3C//DTD SVG 1.1//EN" "http://www.w3.org/Graphics/SVG/1.1/DTD/svg11.dtd"><svg t="1545989758427" class="icon" style="" viewBox="0 0 1026 1024" version="1.1" xmlns="http://www.w3.org/2000/svg" p-id="3807" xmlns:xlink="http://www.w3.org/1999/xlink" width="200.390625" height="200"><defs><style type="text/css"></style></defs><path d="M35.7 291.5h562c17 0 34.1-17 34.1-34.1V36.1c0-17-17-34.1-34.1-34.1h-562c-17 0-34 17-34 34.1v221.4c0 17 17 34 34 34zM751 291.5h238.4c17 0 34.1-17 34.1-34.1V36.1c0-17-17-34.1-34.1-34.1H751c-17 0-34 17-34 34.1v221.4c0 17 17 34 34 34zM35.7 666.2H223c17 0 34.1-17 34.1-34.1V410.7c0-17-17-34.1-34.1-34.1H35.7c-17 0-34.1 17-34.1 34.1v212.9c0.1 25.6 17.1 42.6 34.1 42.6zM376.3 376.7c-17 0-34.1 17-34.1 34.1v212.9c0 17 17 34.1 34.1 34.1h613.1c17 0 34.1-17 34.1-34.1v-213c0-17-17-34-34-34H376.3zM453 734.3H35.7c-17 0-34.1 17-34.1 34.1v212.9c0 25.5 17 42.6 34.1 42.6H453c17 0 34.1-17 34.1-34.1V768.4c-0.1-17-17.1-34.1-34.1-34.1zM992 734.3H574.7c-17 0-34.1 17-34.1 34.1v212.9c0 25.5 17 42.6 34.1 42.6H992c17 0 34.1-17 34.1-34.1V768.4c-0.1-17-17.1-34.1-34.1-34.1z" fill="#b3b3b3" p-id="3808"></path></svg>