<?xml version="1.0" standalone="no"?><!DOCTYPE svg PUBLIC "-//W3C//DTD SVG 1.1//EN" "http://www.w3.org/Graphics/SVG/1.1/DTD/svg11.dtd"><svg t="1545234838782" class="icon" style="" viewBox="0 0 1024 1024" version="1.1" xmlns="http://www.w3.org/2000/svg" p-id="2277" xmlns:xlink="http://www.w3.org/1999/xlink" width="200" height="200"><defs><style type="text/css"></style></defs><path d="M936.1 935.7c-31.8 31.8-83.6 31.8-115.6 0L88.7 204.2c-31.8-31.9-31.9-83.6 0-115.5 31.8-31.9 83.6-31.9 115.7 0l731.7 731.4c31.8 32 32 83.7 0 115.6z m-0.8-731.9L203.4 935.2c-31.9 32-83.6 32-115.6 0-31.8-31.8-31.8-83.4 0.1-115.5L819.7 88.4c31.9-31.9 83.7-31.9 115.5-0.1 32 31.9 31.8 83.6 0.1 115.5z" fill="#EEEEEE" p-id="2278"></path><path d="M512.1 395.8L628 511.6 512.1 627.4l-116-115.8 116-115.8z" fill="#EEEEEE" p-id="2279"></path></svg>