{
    "accessors": {
        "accessor_101": {
            "bufferView": "bufferView_164",
            "byteOffset": 215840,
            "byteStride": 12,
            "componentType": 5126,
            "count": 792,
            "max": [
                1,
                1,
                1
            ],
            "min": [
                -1,
                -1,
                -1
            ],
            "type": "VEC3"
        },
        "accessor_117": {
            "bufferView": "bufferView_163",
            "byteOffset": 18780,
            "byteStride": 0,
            "componentType": 5123,
            "count": 792,
            "type": "SCALAR"
        },
        "accessor_119": {
            "bufferView": "bufferView_164",
            "byteOffset": 225344,
            "byteStride": 12,
            "componentType": 5126,
            "count": 792,
            "max": [
                1.2,
                2.6,
                0.025
            ],
            "min": [
                -1.2,
                0,
                -0.025
            ],
            "type": "VEC3"
        },
        "accessor_121": {
            "bufferView": "bufferView_164",
            "byteOffset": 234848,
            "byteStride": 12,
            "componentType": 5126,
            "count": 792,
            "max": [
                1,
                1,
                1
            ],
            "min": [
                -1,
                -1,
                -1
            ],
            "type": "VEC3"
        },
        "accessor_137": {
            "bufferView": "bufferView_163",
            "byteOffset": 20364,
            "byteStride": 0,
            "componentType": 5123,
            "count": 792,
            "type": "SCALAR"
        },
        "accessor_139": {
            "bufferView": "bufferView_164",
            "byteOffset": 244352,
            "byteStride": 12,
            "componentType": 5126,
            "count": 792,
            "max": [
                1.2,
                2.6,
                0.025
            ],
            "min": [
                -1.2,
                0,
                -0.025
            ],
            "type": "VEC3"
        },
        "accessor_141": {
            "bufferView": "bufferView_164",
            "byteOffset": 253856,
            "byteStride": 12,
            "componentType": 5126,
            "count": 792,
            "max": [
                1,
                1,
                1
            ],
            "min": [
                -1,
                -1,
                -1
            ],
            "type": "VEC3"
        },
        "accessor_157": {
            "bufferView": "bufferView_163",
            "byteOffset": 15612,
            "byteStride": 0,
            "componentType": 5123,
            "count": 792,
            "type": "SCALAR"
        },
        "accessor_159": {
            "bufferView": "bufferView_164",
            "byteOffset": 187328,
            "byteStride": 12,
            "componentType": 5126,
            "count": 792,
            "max": [
                1.2,
                2.6,
                0.025
            ],
            "min": [
                -1.2,
                0,
                -0.025
            ],
            "type": "VEC3"
        },
        "accessor_161": {
            "bufferView": "bufferView_164",
            "byteOffset": 196832,
            "byteStride": 12,
            "componentType": 5126,
            "count": 792,
            "max": [
                1,
                1,
                1
            ],
            "min": [
                -1,
                -1,
                -1
            ],
            "type": "VEC3"
        },
        "accessor_21": {
            "bufferView": "bufferView_163",
            "byteOffset": 10704,
            "byteStride": 0,
            "componentType": 5123,
            "count": 2454,
            "type": "SCALAR"
        },
        "accessor_23": {
            "bufferView": "bufferView_164",
            "byteOffset": 171264,
            "byteStride": 12,
            "componentType": 5126,
            "count": 502,
            "max": [
                10,
                6,
                0.01
            ],
            "min": [
                -9,
                -4,
                0
            ],
            "type": "VEC3"
        },
        "accessor_25": {
            "bufferView": "bufferView_164",
            "byteOffset": 177288,
            "byteStride": 12,
            "componentType": 5126,
            "count": 502,
            "max": [
                1,
                1,
                1
            ],
            "min": [
                0,
                0,
                -1
            ],
            "type": "VEC3"
        },
        "accessor_27": {
            "bufferView": "bufferView_164",
            "byteOffset": 183312,
            "byteStride": 8,
            "componentType": 5126,
            "count": 502,
            "max": [
                2000,
                -199
            ],
            "min": [
                100,
                -1199
            ],
            "type": "VEC2"
        },
        "accessor_48": {
            "bufferView": "bufferView_163",
            "byteOffset": 21948,
            "byteStride": 0,
            "componentType": 5123,
            "count": 1362,
            "type": "SCALAR"
        },
        "accessor_50": {
            "bufferView": "bufferView_164",
            "byteOffset": 263360,
            "byteStride": 12,
            "componentType": 5126,
            "count": 1358,
            "max": [
                9.55387,
                5.075,
                0.995355
            ],
            "min": [
                -9.55387,
                -5.07032,
                -0.0288682
            ],
            "type": "VEC3"
        },
        "accessor_52": {
            "bufferView": "bufferView_164",
            "byteOffset": 279656,
            "byteStride": 12,
            "componentType": 5126,
            "count": 1358,
            "max": [
                1,
                1,
                1
            ],
            "min": [
                -1,
                -1,
                -1
            ],
            "type": "VEC3"
        },
        "accessor_54": {
            "bufferView": "bufferView_164",
            "byteOffset": 295952,
            "byteStride": 8,
            "componentType": 5126,
            "count": 1358,
            "max": [
                953.5,
                502.5
            ],
            "min": [
                -951.5,
                -502.5
            ],
            "type": "VEC2"
        },
        "accessor_75": {
            "bufferView": "bufferView_163",
            "byteOffset": 0,
            "byteStride": 0,
            "componentType": 5123,
            "count": 5352,
            "type": "SCALAR"
        },
        "accessor_77": {
            "bufferView": "bufferView_164",
            "byteOffset": 0,
            "byteStride": 12,
            "componentType": 5126,
            "count": 5352,
            "max": [
                1.85,
                1.25,
                0.1
            ],
            "min": [
                -0.05,
                0,
                -0.869333
            ],
            "type": "VEC3"
        },
        "accessor_79": {
            "bufferView": "bufferView_164",
            "byteOffset": 64224,
            "byteStride": 12,
            "componentType": 5126,
            "count": 5352,
            "max": [
                1,
                1,
                1
            ],
            "min": [
                -1,
                -1,
                -1
            ],
            "type": "VEC3"
        },
        "accessor_81": {
            "bufferView": "bufferView_164",
            "byteOffset": 128448,
            "byteStride": 8,
            "componentType": 5126,
            "count": 5352,
            "max": [
                185.5,
                10.5
            ],
            "min": [
                -184.5,
                -124.5
            ],
            "type": "VEC2"
        },
        "accessor_97": {
            "bufferView": "bufferView_163",
            "byteOffset": 17196,
            "byteStride": 0,
            "componentType": 5123,
            "count": 792,
            "type": "SCALAR"
        },
        "accessor_99": {
            "bufferView": "bufferView_164",
            "byteOffset": 206336,
            "byteStride": 12,
            "componentType": 5126,
            "count": 792,
            "max": [
                1.2,
                2.6,
                0.025
            ],
            "min": [
                -1.2,
                0,
                -0.025
            ],
            "type": "VEC3"
        }
    },
    "animations": {},
    "asset": {
        "generator": "collada2gltf@cf6371beb0bdc18ba603378d5e40c966da53d385",
        "premultipliedAlpha": true,
        "profile": {
            "api": "WebGL",
            "version": "1.0.2"
        },
        "version": "1.0"
    },
    "bufferViews": {
        "bufferView_163": {
            "buffer": "room",
            "byteLength": 24672,
            "byteOffset": 0,
            "target": 34963
        },
        "bufferView_164": {
            "buffer": "room",
            "byteLength": 306816,
            "byteOffset": 24672,
            "target": 34962
        }
    },
    "buffers": {
        "room": {
            "byteLength": 331488,
            "type": "arraybuffer",
            "uri": "data:application/octet-stream;base64,"
        }
    },
    "materials": {
        "ColorEffectR115G115B115": {
            "name": "ColorEffectR115G115B115-material",
            "technique": "technique0",
            "values": {
                "ambient": [
                    0.45098,
                    0.45098,
                    0.45098,
                    1
                ],
                "diffuse": [
                    0.45098,
                    0.45098,
                    0.45098,
                    1
                ],
                "shininess": 10,
                "specular": [
                    1,
                    1,
                    1,
                    1
                ]
            }
        },
        "ColorEffectR224G86B86": {
            "name": "ColorEffectR224G86B86-material",
            "technique": "technique0",
            "values": {
                "ambient": [
                    0.878431,
                    0.337255,
                    0.337255,
                    1
                ],
                "diffuse": [
                    0.878431,
                    0.337255,
                    0.337255,
                    1
                ],
                "shininess": 10,
                "specular": [
                    1,
                    1,
                    1,
                    1
                ]
            }
        },
        "ColorEffectR255G255B255": {
            "name": "ColorEffectR255G255B255-material",
            "technique": "technique1",
            "values": {
                "ambient": [
                    1,
                    1,
                    1,
                    1
                ],
                "diffuse": [
                    1,
                    1,
                    1,
                    1
                ],
                "shininess": 10,
                "specular": [
                    1,
                    1,
                    1,
                    1
                ]
            }
        }
    },
    "meshes": {
        "geom-Pivot001": {
            "name": "Pivot001",
            "primitives": [
                {
                    "attributes": {
                        "NORMAL": "accessor_79",
                        "POSITION": "accessor_77",
                        "TEXCOORD_0": "accessor_81"
                    },
                    "indices": "accessor_75",
                    "material": "ColorEffectR224G86B86",
                    "mode": 4
                }
            ]
        },
        "geom-Plane001": {
            "name": "Plane001",
            "primitives": [
                {
                    "attributes": {
                        "NORMAL": "accessor_25",
                        "POSITION": "accessor_23",
                        "TEXCOORD_0": "accessor_27"
                    },
                    "indices": "accessor_21",
                    "material": "ColorEffectR115G115B115",
                    "mode": 4
                }
            ]
        },
        "geom-SlidingWindow001": {
            "name": "SlidingWindow001",
            "primitives": [
                {
                    "attributes": {
                        "NORMAL": "accessor_161",
                        "POSITION": "accessor_159"
                    },
                    "indices": "accessor_157",
                    "material": "ColorEffectR255G255B255",
                    "mode": 4
                }
            ]
        },
        "geom-SlidingWindow002": {
            "name": "SlidingWindow002",
            "primitives": [
                {
                    "attributes": {
                        "NORMAL": "accessor_101",
                        "POSITION": "accessor_99"
                    },
                    "indices": "accessor_97",
                    "material": "ColorEffectR255G255B255",
                    "mode": 4
                }
            ]
        },
        "geom-SlidingWindow003": {
            "name": "SlidingWindow003",
            "primitives": [
                {
                    "attributes": {
                        "NORMAL": "accessor_121",
                        "POSITION": "accessor_119"
                    },
                    "indices": "accessor_117",
                    "material": "ColorEffectR255G255B255",
                    "mode": 4
                }
            ]
        },
        "geom-SlidingWindow004": {
            "name": "SlidingWindow004",
            "primitives": [
                {
                    "attributes": {
                        "NORMAL": "accessor_141",
                        "POSITION": "accessor_139"
                    },
                    "indices": "accessor_137",
                    "material": "ColorEffectR255G255B255",
                    "mode": 4
                }
            ]
        },
        "geom-Wall001": {
            "name": "Wall001",
            "primitives": [
                {
                    "attributes": {
                        "NORMAL": "accessor_52",
                        "POSITION": "accessor_50",
                        "TEXCOORD_0": "accessor_54"
                    },
                    "indices": "accessor_48",
                    "material": "ColorEffectR115G115B115",
                    "mode": 4
                }
            ]
        }
    },
    "nodes": {
        "node-Pivot001": {
            "children": [],
            "matrix": [
                -1,
                -7.55615e-008,
                -7.54344e-008,
                0,
                -3.59212e-008,
                5.21818e-007,
                0.47619,
                0,
                -7.55614e-008,
                1,
                -1.09582e-006,
                0,
                8.51269,
                5.02186,
                0.0019662,
                1
            ],
            "meshes": [
                "geom-Pivot001"
            ],
            "name": "Pivot001"
        },
        "node-Plane001": {
            "children": [
                "node-Wall001"
            ],
            "matrix": [
                1,
                0,
                0,
                0,
                0,
                1,
                0,
                0,
                0,
                0,
                1,
                0,
                -10,
                -6,
                0,
                1
            ],
            "meshes": [
                "geom-Plane001"
            ],
            "name": "Plane001"
        },
        "node-SlidingWindow001": {
            "children": [],
            "matrix": [
                -0.999849,
                0.0173829,
                -3.14013e-007,
                0,
                -7.89516e-008,
                -2.40157e-007,
                0.238095,
                0,
                0.0173829,
                0.999849,
                1.01427e-006,
                0,
                1.39563,
                5.01323,
                0.296038,
                1
            ],
            "meshes": [
                "geom-SlidingWindow001"
            ],
            "name": "SlidingWindow001"
        },
        "node-SlidingWindow002": {
            "children": [],
            "matrix": [
                -0.999849,
                0.0173829,
                -3.14528e-007,
                0,
                -7.80275e-008,
                -1.79955e-007,
                0.238095,
                0,
                0.0173829,
                0.999849,
                7.61391e-007,
                0,
                -2.60437,
                5.01323,
                0.296038,
                1
            ],
            "meshes": [
                "geom-SlidingWindow002"
            ],
            "name": "SlidingWindow002"
        },
        "node-SlidingWindow003": {
            "children": [],
            "matrix": [
                -0.999849,
                0.0173829,
                -3.14528e-007,
                0,
                -7.80275e-008,
                -1.79955e-007,
                0.238095,
                0,
                0.0173829,
                0.999849,
                7.61391e-007,
                0,
                1.39563,
                -5.02277,
                0.296038,
                1
            ],
            "meshes": [
                "geom-SlidingWindow003"
            ],
            "name": "SlidingWindow003"
        },
        "node-SlidingWindow004": {
            "children": [],
            "matrix": [
                -0.999849,
                0.0173829,
                -3.14528e-007,
                0,
                -7.80275e-008,
                -1.79955e-007,
                0.238095,
                0,
                0.0173829,
                0.999849,
                7.61391e-007,
                0,
                -2.60437,
                -5.02277,
                0.296038,
                1
            ],
            "meshes": [
                "geom-SlidingWindow004"
            ],
            "name": "SlidingWindow004"
        },
        "node-Wall001": {
            "children": [
                "node-Pivot001",
                "node-SlidingWindow002",
                "node-SlidingWindow003",
                "node-SlidingWindow004",
                "node-SlidingWindow001"
            ],
            "matrix": [
                1,
                0,
                0,
                0,
                0,
                1,
                0,
                0,
                0,
                0,
                4.2,
                0,
                0.5,
                1,
                0,
                1
            ],
            "meshes": [
                "geom-Wall001"
            ],
            "name": "Wall001"
        },
        "node_0": {
            "children": [],
            "matrix": [
                1,
                0,
                0,
                0,
                0,
                1,
                0,
                0,
                0,
                0,
                1,
                0,
                0,
                0,
                0,
                1
            ],
            "name": "EnvironmentAmbientLight"
        },
        "node_8": {
            "children": [
                "node_0",
                "node-Plane001"
            ],
            "matrix": [
                1,
                0,
                0,
                0,
                0,
                0,
                -1,
                0,
                0,
                1,
                0,
                0,
                0,
                0,
                0,
                1
            ],
            "name": "Y_UP_Transform"
        }
    },
    "programs": {
        "program_0": {
            "attributes": [
                "a_normal",
                "a_position"
            ],
            "fragmentShader": "room0FS",
            "vertexShader": "room0VS"
        },
        "program_1": {
            "attributes": [
                "a_normal",
                "a_position"
            ],
            "fragmentShader": "room1FS",
            "vertexShader": "room1VS"
        }
    },
    "scene": "defaultScene",
    "scenes": {
        "defaultScene": {
            "nodes": [
                "node_8"
            ]
        }
    },
    "shaders": {
        "room0FS": {
            "type": 35632,
            "uri": "data:text/plain;base64,"
        },
        "room0VS": {
            "type": 35633,
            "uri": "data:text/plain;base64,"
        },
        "room1FS": {
            "type": 35632,
            "uri": "data:text/plain;base64,"
        },
        "room1VS": {
            "type": 35633,
            "uri": "data:text/plain;base64,"
        }
    },
    "skins": {},
    "techniques": {
        "technique0": {
            "attributes": {
                "a_normal": "normal",
                "a_position": "position"
            },
            "parameters": {
                "ambient": {
                    "type": 35666
                },
                "diffuse": {
                    "type": 35666
                },
                "modelViewMatrix": {
                    "semantic": "MODELVIEW",
                    "type": 35676
                },
                "normal": {
                    "semantic": "NORMAL",
                    "type": 35665
                },
                "normalMatrix": {
                    "semantic": "MODELVIEWINVERSETRANSPOSE",
                    "type": 35675
                },
                "position": {
                    "semantic": "POSITION",
                    "type": 35665
                },
                "projectionMatrix": {
                    "semantic": "PROJECTION",
                    "type": 35676
                },
                "shininess": {
                    "type": 5126
                },
                "specular": {
                    "type": 35666
                }
            },
            "program": "program_0",
            "states": {
                "enable": [
                    2929,
                    2884
                ]
            },
            "uniforms": {
                "u_ambient": "ambient",
                "u_diffuse": "diffuse",
                "u_modelViewMatrix": "modelViewMatrix",
                "u_normalMatrix": "normalMatrix",
                "u_projectionMatrix": "projectionMatrix",
                "u_shininess": "shininess",
                "u_specular": "specular"
            }
        },
        "technique1": {
            "attributes": {
                "a_normal": "normal",
                "a_position": "position"
            },
            "parameters": {
                "ambient": {
                    "type": 35666
                },
                "diffuse": {
                    "type": 35666
                },
                "modelViewMatrix": {
                    "semantic": "MODELVIEW",
                    "type": 35676
                },
                "normal": {
                    "semantic": "NORMAL",
                    "type": 35665
                },
                "normalMatrix": {
                    "semantic": "MODELVIEWINVERSETRANSPOSE",
                    "type": 35675
                },
                "position": {
                    "semantic": "POSITION",
                    "type": 35665
                },
                "projectionMatrix": {
                    "semantic": "PROJECTION",
                    "type": 35676
                },
                "shininess": {
                    "type": 5126
                },
                "specular": {
                    "type": 35666
                }
            },
            "program": "program_1",
            "states": {
                "enable": [
                    2929,
                    2884
                ]
            },
            "uniforms": {
                "u_ambient": "ambient",
                "u_diffuse": "diffuse",
                "u_modelViewMatrix": "modelViewMatrix",
                "u_normalMatrix": "normalMatrix",
                "u_projectionMatrix": "projectionMatrix",
                "u_shininess": "shininess",
                "u_specular": "specular"
            }
        }
    }
}